TITLE ""
FILE "Disc1Track77.mp3" MP3
  TRACK 01 AUDIO
    TITLE "Disc1Track77_01"
    INDEX 01 00:00:00
  TRACK 02 AUDIO
    TITLE "Disc1Track77_02"
    INDEX 01 00:01:16
  TRACK 03 AUDIO
    TITLE "Disc1Track77_03"
    INDEX 01 00:03:34
  TRACK 04 AUDIO
    TITLE "Disc1Track77_04"
    INDEX 01 00:04:59
  TRACK 05 AUDIO
    TITLE "Disc1Track77_05"
    INDEX 01 00:10:07
  TRACK 06 AUDIO
    TITLE "Disc1Track77_06"
    INDEX 01 00:10:38
  TRACK 07 AUDIO
    TITLE "Disc1Track77_07"
    INDEX 01 00:11:67
  TRACK 08 AUDIO
    TITLE "Disc1Track77_08"
    INDEX 01 00:12:70
  TRACK 09 AUDIO
    TITLE "Disc1Track77_09"
    INDEX 01 00:14:24
  TRACK 10 AUDIO
    TITLE "Disc1Track77_10"
    INDEX 01 00:14:57
  TRACK 11 AUDIO
    TITLE "Disc1Track77_11"
    INDEX 01 00:16:21
  TRACK 12 AUDIO
    TITLE "Disc1Track77_12"
    INDEX 01 00:17:38
  TRACK 13 AUDIO
    TITLE "Disc1Track77_13"
    INDEX 01 00:19:02
  TRACK 14 AUDIO
    TITLE "Disc1Track77_14"
    INDEX 01 00:19:39
  TRACK 15 AUDIO
    TITLE "Disc1Track77_15"
    INDEX 01 00:21:05
  TRACK 16 AUDIO
    TITLE "Disc1Track77_16"
    INDEX 01 00:22:08
  TRACK 17 AUDIO
    TITLE "Disc1Track77_17"
    INDEX 01 00:23:49
  TRACK 18 AUDIO
    TITLE "Disc1Track77_18"
    INDEX 01 00:24:17
  TRACK 19 AUDIO
    TITLE "Disc1Track77_19"
    INDEX 01 00:25:51
  TRACK 20 AUDIO
    TITLE "Disc1Track77_20"
    INDEX 01 00:26:53
  TRACK 21 AUDIO
    TITLE "Disc1Track77_21"
    INDEX 01 00:28:14
  TRACK 22 AUDIO
    TITLE "Disc1Track77_22"
    INDEX 01 00:28:56
  TRACK 23 AUDIO
    TITLE "Disc1Track77_23"
    INDEX 01 00:29:57
  TRACK 24 AUDIO
    TITLE "Disc1Track77_24"
    INDEX 01 00:30:39
  TRACK 25 AUDIO
    TITLE "Disc1Track77_25"
    INDEX 01 00:31:40
  TRACK 26 AUDIO
    TITLE "Disc1Track77_26"
    INDEX 01 00:35:42
  TRACK 27 AUDIO
    TITLE "Disc1Track77_27"
    INDEX 01 00:35:73
  TRACK 28 AUDIO
    TITLE "Disc1Track77_28"
    INDEX 01 00:37:23
  TRACK 29 AUDIO
    TITLE "Disc1Track77_29"
    INDEX 01 00:38:32
  TRACK 30 AUDIO
    TITLE "Disc1Track77_30"
    INDEX 01 00:39:55
  TRACK 31 AUDIO
    TITLE "Disc1Track77_31"
    INDEX 01 00:40:20
  TRACK 32 AUDIO
    TITLE "Disc1Track77_32"
    INDEX 01 00:41:45
  TRACK 33 AUDIO
    TITLE "Disc1Track77_33"
    INDEX 01 00:44:02
  TRACK 34 AUDIO
    TITLE "Disc1Track77_34"
    INDEX 01 00:45:25
  TRACK 35 AUDIO
    TITLE "Disc1Track77_35"
    INDEX 01 00:50:12
  TRACK 36 AUDIO
    TITLE "Disc1Track77_36"
    INDEX 01 00:50:43
  TRACK 37 AUDIO
    TITLE "Disc1Track77_37"
    INDEX 01 00:51:68
  TRACK 38 AUDIO
    TITLE "Disc1Track77_38"
    INDEX 01 00:53:07
  TRACK 39 AUDIO
    TITLE "Disc1Track77_39"
    INDEX 01 00:54:30
  TRACK 40 AUDIO
    TITLE "Disc1Track77_40"
    INDEX 01 00:59:70
  TRACK 41 AUDIO
    TITLE "Disc1Track77_41"
    INDEX 01 01:00:28
  TRACK 42 AUDIO
    TITLE "Disc1Track77_42"
    INDEX 01 01:01:55
  TRACK 43 AUDIO
    TITLE "Disc1Track77_43"
    INDEX 01 01:04:55
  TRACK 44 AUDIO
    TITLE "Disc1Track77_44"
    INDEX 01 01:06:07
  TRACK 45 AUDIO
    TITLE "Disc1Track77_45"
    INDEX 01 01:11:38
  TRACK 46 AUDIO
    TITLE "Disc1Track77_46"
    INDEX 01 01:11:69
  TRACK 47 AUDIO
    TITLE "Disc1Track77_47"
    INDEX 01 01:13:05
  TRACK 48 AUDIO
    TITLE "Disc1Track77_48"
    INDEX 01 01:14:73
  TRACK 49 AUDIO
    TITLE "Disc1Track77_49"
    INDEX 01 01:16:10
  TRACK 50 AUDIO
    TITLE "Disc1Track77_50"
    INDEX 01 01:19:53
  TRACK 51 AUDIO
    TITLE "Disc1Track77_51"
    INDEX 01 01:20:09
  TRACK 52 AUDIO
    TITLE "Disc1Track77_52"
    INDEX 01 01:21:32
  TRACK 53 AUDIO
    TITLE "Disc1Track77_53"
    INDEX 01 01:22:36
  TRACK 54 AUDIO
    TITLE "Disc1Track77_54"
    INDEX 01 01:23:57
  TRACK 55 AUDIO
    TITLE "Disc1Track77_55"
    INDEX 01 01:25:16
